<svg width="20" height="20" viewBox="0 0 20 20" fill="none" xmlns="http://www.w3.org/2000/svg">
<g id="Iconsax/Bulk/directright">
<path id="Vector" d="M2.25832 14.1834L3.70832 11.2834C4.10832 10.475 4.10832 9.53335 3.70832 8.72502L2.25832 5.81669C1.01665 3.33335 3.69165 0.708352 6.14999 2.00835L7.43332 2.69169C7.61665 2.78335 7.75832 2.93335 7.83332 3.11669L12.575 13.6584C12.7667 14.0917 12.5917 14.6 12.175 14.8167L6.14165 17.9917C3.69165 19.2917 1.01665 16.6667 2.25832 14.1834Z" fill="#7F56D9"/>
<path id="Vector_2" opacity="0.4" d="M13.5917 13L10.4833 6.10001C10.1333 5.325 10.9667 4.54167 11.7167 4.94167L16.525 7.47501C18.5667 8.55001 18.5667 11.4667 16.525 12.5417L14.825 13.4333C14.3667 13.6667 13.8083 13.475 13.5917 13Z" fill="#7F56D9"/>
</g>
</svg>
