<svg width="20" height="20" viewBox="0 0 20 20" fill="none" xmlns="http://www.w3.org/2000/svg">
<g id="Iconsax/Bulk/hierarchy">
<path id="Vector" d="M4.37496 7.08335C5.09325 7.08335 5.78213 6.79801 6.29004 6.2901C6.79795 5.78219 7.08329 5.09331 7.08329 4.37502C7.08329 3.65673 6.79795 2.96785 6.29004 2.45994C5.78213 1.95203 5.09325 1.66669 4.37496 1.66669C3.65666 1.66669 2.96779 1.95203 2.45988 2.45994C1.95197 2.96785 1.66663 3.65673 1.66663 4.37502C1.66663 5.09331 1.95197 5.78219 2.45988 6.2901C2.96779 6.79801 3.65666 7.08335 4.37496 7.08335ZM4.16663 18.3334C4.82967 18.3334 5.46555 18.07 5.93439 17.6011C6.40323 17.1323 6.66663 16.4964 6.66663 15.8334C6.66663 15.1703 6.40323 14.5344 5.93439 14.0656C5.46555 13.5967 4.82967 13.3334 4.16663 13.3334C3.50358 13.3334 2.8677 13.5967 2.39886 14.0656C1.93002 14.5344 1.66663 15.1703 1.66663 15.8334C1.66663 16.4964 1.93002 17.1323 2.39886 17.6011C2.8677 18.07 3.50358 18.3334 4.16663 18.3334ZM15.8333 18.3334C16.4963 18.3334 17.1322 18.07 17.6011 17.6011C18.0699 17.1323 18.3333 16.4964 18.3333 15.8334C18.3333 15.1703 18.0699 14.5344 17.6011 14.0656C17.1322 13.5967 16.4963 13.3334 15.8333 13.3334C15.1703 13.3334 14.5344 13.5967 14.0655 14.0656C13.5967 14.5344 13.3333 15.1703 13.3333 15.8334C13.3333 16.4964 13.5967 17.1323 14.0655 17.6011C14.5344 18.07 15.1703 18.3334 15.8333 18.3334Z" fill="#12B76A"/>
<path id="Vector_2" opacity="0.4" d="M15.975 13.315C15.5809 12.1834 14.8445 11.2025 13.868 10.5082C12.8915 9.81391 11.7232 9.44057 10.525 9.43997H10.5L7.55829 9.4483C6.29163 9.46497 5.15829 8.60664 4.81663 7.3733V5.83164C4.81663 5.48164 4.53329 5.1983 4.17496 5.1983C3.81663 5.1983 3.54163 5.48164 3.54163 5.83164V15.1816C3.54163 15.5316 3.82496 15.815 4.17496 15.815C4.52496 15.815 4.81663 15.5316 4.81663 15.1816V9.66497C5.54996 10.315 6.50829 10.715 7.54996 10.715H7.56663L10.5083 10.7066H10.525C12.4333 10.7066 14.1416 11.915 14.7666 13.7233C14.8583 13.99 15.1083 14.1483 15.3666 14.1483C15.4333 14.1483 15.5083 14.14 15.575 14.115C15.9166 14.015 16.0916 13.6483 15.975 13.315Z" fill="#12B76A"/>
</g>
</svg>
