<svg width="20" height="20" viewBox="0 0 20 20" fill="none" xmlns="http://www.w3.org/2000/svg">
<g id="Group 296">
<path id="Vector" opacity="0.4" d="M18.2938 15.4439C17.2909 16.3986 15.9971 16.9232 14.6431 16.9127H14.5528C14.8537 16.2622 15.0142 15.5278 15.0142 14.7514C15.0142 11.8557 12.7676 9.5055 9.99942 9.5055C7.23128 9.5055 4.98467 11.8557 4.98467 14.7514C4.98467 15.5278 5.14514 16.2622 5.44603 16.9127H3.52036C-1.17345 16.5665 -1.17345 9.42157 3.52036 9.07534H3.57051C0.351033 -0.293845 13.931 -4.03942 15.4856 5.80189C19.8283 6.37894 21.5835 12.4327 18.2938 15.4439Z" fill="#12B76A"/>
<path id="Vector_2" d="M9.99938 9.50818C7.23123 9.50818 4.98462 11.8583 4.98462 14.7541C4.98462 15.5305 5.14509 16.2649 5.44598 16.9154C5.52621 17.1042 5.61648 17.2826 5.71677 17.4505C6.15757 18.2278 6.78427 18.8717 7.53519 19.3187C8.28611 19.7658 9.13537 20.0006 9.99938 20C11.8247 20 13.4194 18.9718 14.282 17.4505C14.3823 17.2826 14.4725 17.1042 14.5528 16.9154C14.8537 16.2649 15.0141 15.5305 15.0141 14.7541C15.0141 11.8583 12.7675 9.50818 9.99938 9.50818ZM12.0755 14.3029L9.9392 16.3698C9.79878 16.5062 9.60822 16.5797 9.42769 16.5797C9.23713 16.5797 9.04657 16.5062 8.89613 16.3488L7.90321 15.3101C7.76332 15.1621 7.68486 14.9623 7.68486 14.7541C7.68486 14.5459 7.76332 14.3461 7.90321 14.198C8.19406 13.8938 8.67548 13.8938 8.96634 14.198L9.44775 14.7016L11.0525 13.1488C11.3634 12.8551 11.8348 12.876 12.1156 13.1908C12.3964 13.5056 12.3764 13.9987 12.0755 14.3029Z" fill="#12B76A"/>
</g>
</svg>
