<svg width="20" height="20" viewBox="0 0 20 20" fill="none" xmlns="http://www.w3.org/2000/svg">
<g id="Group 288">
<path id="Vector" opacity="0.4" d="M14.1971 0H5.8129C2.17108 0 0 2.17 0 5.81V14.18C0 17.83 2.17108 20 5.8129 20H14.1871C17.8289 20 20 17.83 20 14.19V5.81C20.01 2.17 17.8389 0 14.1971 0Z" fill="#D92D20"/>
<path id="Vector_2" d="M14.4273 5.80844V14.1884C14.4273 14.8284 13.907 15.3484 13.2667 15.3484C12.6164 15.3484 12.0961 14.8284 12.0961 14.1884V5.80844C12.0961 5.16844 12.6164 4.64844 13.2667 4.64844C13.907 4.64844 14.4273 5.16844 14.4273 5.80844ZM7.91405 10.9304V14.1904C7.91405 14.8304 7.39379 15.3504 6.74346 15.3504C6.10314 15.3504 5.58289 14.8304 5.58289 14.1904V10.9304C5.58289 10.2904 6.10314 9.77044 6.74346 9.77044C7.39379 9.77044 7.91405 10.2904 7.91405 10.9304Z" fill="#D92D20"/>
</g>
</svg>
