<svg width="20" height="20" viewBox="0 0 20 20" fill="none" xmlns="http://www.w3.org/2000/svg">
<g id="Group 292">
<path id="Vector" d="M7.03 3.17C7.02 3.08 7.01 3 6.99 2.91C6.98 2.84 6.97 2.77 6.95 2.69C6.92 2.57 6.88 2.44 6.83 2.32C6.71 1.97 6.53 1.65 6.3 1.35C6.17 1.19 6.03 1.03 5.87 0.9C5.23 0.32 4.4 0 3.53 0C2.59379 0 1.69592 0.37191 1.03391 1.03391C0.37191 1.69592 0 2.59379 0 3.53C0 4.4 0.32 5.23 0.9 5.87C1.03 6.03 1.19 6.17 1.35 6.3C1.65 6.53 1.97 6.71 2.32 6.83C2.44 6.88 2.57 6.92 2.69 6.95C2.77 6.97 2.84 6.98 2.91 6.99C3 7.01 3.08 7.02 3.17 7.03C3.29 7.04 3.41 7.05 3.53 7.05C5.47 7.05 7.05 5.47 7.05 3.53C7.05 3.41 7.04 3.29 7.03 3.17ZM19.1 14.14C19 14.01 18.87 13.88 18.73 13.77C18.71 13.75 18.68 13.72 18.65 13.7C18.38 13.49 18.08 13.32 17.77 13.2C17.7437 13.1812 17.7123 13.1707 17.68 13.17C17.57 13.13 17.46 13.09 17.35 13.06C17.18 13.02 17 12.99 16.83 12.97C16.71 12.96 16.59 12.95 16.47 12.95C14.53 12.95 12.95 14.53 12.95 16.47C12.95 16.59 12.96 16.71 12.97 16.83C12.99 17 13.02 17.18 13.06 17.35C13.09 17.46 13.13 17.57 13.17 17.68C13.17 17.71 13.18 17.74 13.2 17.77C13.32 18.08 13.49 18.38 13.7 18.65C13.72 18.68 13.75 18.7 13.77 18.73C13.88 18.87 14.01 19 14.14 19.1C14.78 19.68 15.6 20 16.47 20C17.4062 20 18.3041 19.6281 18.9661 18.9661C19.6281 18.3041 20 17.4062 20 16.47C20 15.6 19.68 14.78 19.1 14.14ZM3.53 12.95C3.41 12.95 3.29 12.96 3.17 12.97C3 12.99 2.82 13.02 2.65 13.06C2.54 13.09 2.43 13.13 2.32 13.17C2.29 13.17 2.26 13.18 2.23 13.2C1.92 13.32 1.62 13.49 1.35 13.7C1.32 13.72 1.3 13.75 1.27 13.77C1.13 13.88 1 14.01 0.9 14.14C0.32 14.78 0 15.6 0 16.47C0 17.4062 0.37191 18.3041 1.03391 18.9661C1.69592 19.6281 2.59379 20 3.53 20C4.4 20 5.23 19.68 5.87 19.1C6.03 18.97 6.17 18.81 6.3 18.65C6.51 18.38 6.68 18.08 6.8 17.77C6.82 17.74 6.83 17.71 6.83 17.68C6.87 17.57 6.91 17.46 6.94 17.35C6.98 17.18 7.01 17 7.03 16.83C7.04 16.71 7.05 16.59 7.05 16.47C7.05 14.53 5.47 12.95 3.53 12.95ZM16.47 0C15.6 0 14.78 0.32 14.14 0.9C14.01 1 13.88 1.13 13.77 1.27C13.75 1.29 13.72 1.32 13.7 1.35C13.49 1.62 13.32 1.92 13.2 2.23C13.18 2.26 13.17 2.29 13.17 2.32C13.13 2.43 13.09 2.54 13.06 2.65C13.02 2.82 12.99 3 12.97 3.17C12.96 3.29 12.95 3.41 12.95 3.53C12.95 5.47 14.53 7.05 16.47 7.05C16.59 7.05 16.71 7.04 16.83 7.03C17 7.01 17.18 6.98 17.35 6.94C17.46 6.91 17.57 6.87 17.68 6.83C17.71 6.83 17.74 6.82 17.77 6.8C18.08 6.68 18.38 6.51 18.65 6.3C18.81 6.17 18.97 6.03 19.1 5.87C19.68 5.23 20 4.4 20 3.53C20 2.59379 19.6281 1.69592 18.9661 1.03391C18.3041 0.37191 17.4062 0 16.47 0Z" fill="#14CCB4"/>
<path id="Vector_2" opacity="0.4" d="M13.77 18.7301C13.75 18.7001 13.72 18.6801 13.7 18.6501C13.49 18.3801 13.32 18.0801 13.2 17.7701L13.23 17.8601C11.22 18.7001 8.82 18.7101 6.77 17.8601L6.8 17.7701C6.68 18.0801 6.51 18.3801 6.3 18.6501C6.17 18.8101 6.03 18.9701 5.87 19.1001C7.15 19.6901 8.57 20.0001 10 20.0001C11.46 20.0001 12.85 19.7001 14.14 19.1001C14.01 19.0001 13.88 18.8701 13.77 18.7301ZM1.5 10.0001C1.5 8.89014 1.72 7.78014 2.14 6.77014C2.15 6.77014 2.17 6.78014 2.18 6.78014C1.88242 6.65939 1.60308 6.49784 1.35 6.30014C1.19 6.17014 1.03 6.03014 0.9 5.87014C0.31 7.15014 0 8.57014 0 10.0001C0 11.4601 0.3 12.8501 0.9 14.1401C1 14.0101 1.13 13.8801 1.27 13.7701C1.3 13.7501 1.32 13.7201 1.35 13.7001C1.62 13.4901 1.92 13.3201 2.23 13.2001L2.14 13.2301C1.71 12.2201 1.5 11.1301 1.5 10.0001ZM19.1 5.87014C18.97 6.03014 18.81 6.17014 18.65 6.30014C18.38 6.51014 18.08 6.68014 17.77 6.80014L17.86 6.77014C18.28 7.78014 18.5 8.89014 18.5 10.0001C18.5 11.1301 18.29 12.2201 17.86 13.2301L17.77 13.2001C18.08 13.3201 18.38 13.4901 18.65 13.7001C18.68 13.7201 18.71 13.7501 18.73 13.7701C18.87 13.8801 19 14.0101 19.1 14.1401C19.7 12.8501 20 11.4601 20 10.0001C20 8.57014 19.69 7.15014 19.1 5.87014ZM10 0.000142411C8.57 0.000142411 7.15 0.310143 5.87 0.900142C6.03 1.03014 6.17 1.19014 6.3 1.35014C6.4977 1.60322 6.65925 1.88256 6.78 2.18014C6.78 2.17014 6.77 2.15014 6.77 2.14014C8.81 1.29014 11.22 1.30014 13.23 2.14014L13.2 2.23014C13.32 1.92014 13.49 1.62014 13.7 1.35014C13.72 1.32014 13.75 1.29014 13.77 1.27014C13.88 1.13014 14.01 1.00014 14.14 0.900142C12.8429 0.299693 11.4294 -0.00759056 10 0.000142411Z" fill="#14CCB4"/>
</g>
</svg>
