<svg xmlns="http://www.w3.org/2000/svg" version="1.1" xmlns:xlink="http://www.w3.org/1999/xlink" xmlns:svgjs="http://svgjs.com/svgjs" width="512" height="512" x="0" y="0" viewBox="0 0 512 512" style="enable-background:new 0 0 512 512" xml:space="preserve" class=""><g><path fill-rule="evenodd" d="m278.914 71.5 44.37 52.258a3.22 3.22 0 0 1-2.457 5.309h-20.665v132.127l-8.331-3.206a127.114 127.114 0 0 0-8.858-21.368l10.56-23.775-40.433-40.43-.348.155v-43.5h-20.665a3.22 3.22 0 0 1-2.456-5.309L274 71.5a3.221 3.221 0 0 1 4.913 0zm200.967 292.529a83 83 0 0 0-10.081-24.32l7.015-15.794-18.621-18.615-15.8 7.017a83.049 83.049 0 0 0-24.313-10.08l-6.206-16.122h-26.331l-6.206 16.122a83.026 83.026 0 0 0-24.313 10.08l-15.8-7.017-18.62 18.621 7.016 15.8a83.022 83.022 0 0 0-10.08 24.315l-16.121 6.2v26.334l16.119 6.2a82.994 82.994 0 0 0 10.081 24.32l-7.015 15.794 18.621 18.621 15.8-7.017a83.035 83.035 0 0 0 24.313 10.079l6.206 16.123h26.333l6.2-16.119A83.038 83.038 0 0 0 442.4 454.49l15.793 7.015 18.621-18.621-7.017-15.8a83.046 83.046 0 0 0 10.079-24.313L496 396.566v-26.333zm-81.171 65.3a45.925 45.925 0 1 1 45.925-45.929 45.921 45.921 0 0 1-45.925 45.924zM278.55 270.02a110.966 110.966 0 0 0-13.478-32.514l9.379-21.115-24.9-24.895-21.122 9.381a111.026 111.026 0 0 0-32.5-13.475l-8.3-21.555h-35.202l-8.3 21.555a111.026 111.026 0 0 0-32.5 13.475L90.5 191.5l-24.892 24.891 9.38 21.12a111.019 111.019 0 0 0-13.476 32.508l-21.553 8.3v35.206l21.55 8.294a110.993 110.993 0 0 0 13.478 32.514l-9.379 21.116 24.892 24.89 21.122-9.381a111.026 111.026 0 0 0 32.5 13.475l8.3 21.555h35.206l8.294-21.55a110.966 110.966 0 0 0 32.514-13.478l21.116 9.379 24.894-24.895-9.381-21.122a111.015 111.015 0 0 0 13.475-32.5l21.555-8.3v-35.2zm-108.521 87.3a61.4 61.4 0 1 1 61.4-61.4 61.394 61.394 0 0 1-61.4 61.396zM66.058 110.555l44.37 52.259a3.22 3.22 0 0 1-2.457 5.308H87.306v4.448l-.349-.155-40.43 40.431 10.561 23.779q-1.7 3.242-3.219 6.576h-7.527a6.458 6.458 0 0 1-6.445-6.446v-68.633H19.231a3.22 3.22 0 0 1-2.457-5.308l44.371-52.259a3.223 3.223 0 0 1 4.913 0zm106.428-78.108 44.37 52.259a3.22 3.22 0 0 1-2.457 5.308h-20.665v59.833h-47.409V90.014h-20.666a3.22 3.22 0 0 1-2.457-5.308l44.371-52.259a3.222 3.222 0 0 1 4.913 0z" fill="#838ca2" data-original="#000000" class=""></path></g></svg>