<svg width="24" height="24" viewBox="0 0 24 24" fill="none" xmlns="http://www.w3.org/2000/svg">
<g id="Iconsax/Bulk/messagequestion">
<path id="Vector" opacity="0.4" d="M17 18.4297H13L8.55 21.3897C8.39982 21.4898 8.22528 21.5473 8.045 21.556C7.86472 21.5646 7.68546 21.5242 7.52635 21.439C7.36724 21.3538 7.23424 21.227 7.14154 21.0722C7.04884 20.9173 6.99992 20.7402 7 20.5597V18.4297C4 18.4297 2 16.4297 2 13.4297V7.42969C2 4.42969 4 2.42969 7 2.42969H17C20 2.42969 22 4.42969 22 7.42969V13.4297C22 16.4297 20 18.4297 17 18.4297Z" fill="#DC6803"/>
<path id="Vector_2" d="M11.9998 12.1104C11.5898 12.1104 11.2498 11.7704 11.2498 11.3604V11.1504C11.2498 9.99035 12.0998 9.42035 12.4198 9.20035C12.7898 8.95035 12.9098 8.78035 12.9098 8.52035C12.9098 8.02035 12.4998 7.61035 11.9998 7.61035C11.4998 7.61035 11.0898 8.02035 11.0898 8.52035C11.0898 8.93035 10.7498 9.27035 10.3398 9.27035C9.92984 9.27035 9.58984 8.93035 9.58984 8.52035C9.58984 7.19035 10.6698 6.11035 11.9998 6.11035C13.3298 6.11035 14.4098 7.19035 14.4098 8.52035C14.4098 9.66035 13.5698 10.2304 13.2598 10.4404C12.8698 10.7004 12.7498 10.8704 12.7498 11.1504V11.3604C12.7498 11.7804 12.4098 12.1104 11.9998 12.1104ZM11.9998 14.6024C11.9015 14.6025 11.8041 14.5832 11.7131 14.5457C11.6222 14.5082 11.5396 14.4531 11.4699 14.3837C11.4003 14.3142 11.345 14.2317 11.3072 14.1409C11.2695 14.0501 11.25 13.9527 11.2498 13.8544C11.2497 13.756 11.269 13.6586 11.3065 13.5676C11.344 13.4767 11.3991 13.3941 11.4685 13.3244C11.538 13.2548 11.6205 13.1995 11.7113 13.1617C11.8021 13.124 11.8995 13.1045 11.9978 13.1044C12.1965 13.1041 12.3871 13.1827 12.5278 13.323C12.6684 13.4633 12.7476 13.6537 12.7478 13.8524C12.7481 14.051 12.6695 14.2416 12.5292 14.3823C12.3889 14.5229 12.1985 14.6021 11.9998 14.6024Z" fill="#DC6803"/>
</g>
</svg>
