<svg width="20" height="20" viewBox="0 0 20 20" fill="none" xmlns="http://www.w3.org/2000/svg">
<g id="Group 287">
<path id="Vector" opacity="0.4" d="M19.0848 4.5623C19.103 4.79415 19.0848 5.03566 19.0303 5.27717L15.9661 18.3477C15.8599 18.8204 15.6062 19.241 15.2463 19.541C14.8863 19.841 14.4414 20.0026 13.984 19.9996H2.03649C0.663526 19.9996 -0.309367 18.5698 0.0907013 17.1691L3.91863 4.0986C4.18231 3.19053 4.97335 2.57227 5.86441 2.57227H17.0481C17.921 2.57227 18.6302 3.12291 18.9303 3.89574C19.0188 4.10634 19.0712 4.33209 19.0848 4.5623Z" fill="#DC6803"/>
<path id="Vector_2" d="M19.994 17.7006C20.0154 17.9944 19.9792 18.2898 19.8878 18.5681C19.7964 18.8464 19.6518 19.1016 19.4631 19.3175C19.2743 19.5335 19.0455 19.7056 18.791 19.823C18.5366 19.9405 18.262 20.0006 17.9846 19.9997H13.9839C14.9295 19.9997 15.7479 19.3235 15.9661 18.3478L19.0302 5.27733C19.0848 5.03582 19.103 4.79431 19.0848 4.56246L19.0939 4.54314L19.994 17.7006ZM7.89198 5.63573C7.83742 5.63573 7.78287 5.62607 7.72831 5.61641C7.64103 5.59379 7.55882 5.55307 7.4864 5.49659C7.41398 5.44011 7.35277 5.36898 7.3063 5.28729C7.25983 5.2056 7.22901 5.11496 7.21561 5.02058C7.20221 4.9262 7.2065 4.82993 7.22823 4.73732L8.17384 0.564034C8.26477 0.177619 8.62846 -0.0542302 9.00125 0.0327132C9.36495 0.129317 9.59226 0.515732 9.50134 0.911807L8.55572 5.08509C8.48298 5.41354 8.20112 5.63573 7.89198 5.63573ZM13.9839 5.64636C13.9385 5.64636 13.8839 5.64636 13.8384 5.62704C13.6629 5.58419 13.5098 5.47063 13.4114 5.31026C13.313 5.1499 13.2771 4.95524 13.3111 4.76726L14.1658 0.57466C14.2476 0.178585 14.6113 -0.0629245 14.975 0.0143585C15.3387 0.101302 15.5751 0.487717 15.5024 0.874132L14.6477 5.06673C14.584 5.41451 14.3022 5.64636 13.9839 5.64636ZM13.3656 11.0639H6.09167C5.71888 11.0639 5.40973 10.7354 5.40973 10.3394C5.40973 9.94329 5.71888 9.61484 6.09167 9.61484H13.3656C13.7384 9.61484 14.0476 9.94329 14.0476 10.3394C14.0476 10.7354 13.7384 11.0639 13.3656 11.0639ZM12.4564 14.928H5.18242C4.80963 14.928 4.50049 14.5996 4.50049 14.2035C4.50049 13.8074 4.80963 13.479 5.18242 13.479H12.4564C12.8292 13.479 13.1383 13.8074 13.1383 14.2035C13.1383 14.5996 12.8292 14.928 12.4564 14.928Z" fill="#DC6803"/>
</g>
</svg>
