<svg width="16" height="16" viewBox="0 0 16 16" fill="none" xmlns="http://www.w3.org/2000/svg">
<g id="settings" clip-path="url(#clip0_1547_15284)">
<g id="Icon">
<path d="M7.99999 10.0003C9.10456 10.0003 9.99999 9.10489 9.99999 8.00033C9.99999 6.89576 9.10456 6.00033 7.99999 6.00033C6.89542 6.00033 5.99999 6.89576 5.99999 8.00033C5.99999 9.10489 6.89542 10.0003 7.99999 10.0003Z" stroke="#344054" stroke-width="1.5" stroke-linecap="round" stroke-linejoin="round"/>
<path d="M12.9333 10.0003C12.8446 10.2014 12.8181 10.4245 12.8573 10.6407C12.8965 10.857 12.9996 11.0565 13.1533 11.2137L13.1933 11.2537C13.3173 11.3775 13.4156 11.5245 13.4827 11.6864C13.5498 11.8483 13.5844 12.0218 13.5844 12.197C13.5844 12.3722 13.5498 12.5457 13.4827 12.7076C13.4156 12.8694 13.3173 13.0165 13.1933 13.1403C13.0695 13.2643 12.9224 13.3626 12.7606 13.4297C12.5987 13.4968 12.4252 13.5314 12.25 13.5314C12.0748 13.5314 11.9013 13.4968 11.7394 13.4297C11.5775 13.3626 11.4305 13.2643 11.3067 13.1403L11.2667 13.1003C11.1095 12.9466 10.91 12.8435 10.6937 12.8043C10.4775 12.7651 10.2544 12.7916 10.0533 12.8803C9.85614 12.9648 9.68798 13.1052 9.56953 13.284C9.45108 13.4629 9.38751 13.6725 9.38666 13.887V14.0003C9.38666 14.3539 9.24618 14.6931 8.99613 14.9431C8.74608 15.1932 8.40694 15.3337 8.05332 15.3337C7.6997 15.3337 7.36056 15.1932 7.11051 14.9431C6.86047 14.6931 6.71999 14.3539 6.71999 14.0003V13.9403C6.71483 13.7197 6.6434 13.5057 6.515 13.3261C6.38659 13.1466 6.20715 13.0098 5.99999 12.9337C5.79891 12.8449 5.57586 12.8184 5.3596 12.8577C5.14333 12.8969 4.94378 13 4.78666 13.1537L4.74666 13.1937C4.62283 13.3176 4.47577 13.416 4.31391 13.4831C4.15205 13.5502 3.97854 13.5847 3.80332 13.5847C3.6281 13.5847 3.4546 13.5502 3.29274 13.4831C3.13087 13.416 2.98382 13.3176 2.85999 13.1937C2.73602 13.0698 2.63768 12.9228 2.57058 12.7609C2.50348 12.599 2.46894 12.4255 2.46894 12.2503C2.46894 12.0751 2.50348 11.9016 2.57058 11.7397C2.63768 11.5779 2.73602 11.4308 2.85999 11.307L2.89999 11.267C3.05368 11.1099 3.15678 10.9103 3.19599 10.6941C3.23521 10.4778 3.20873 10.2547 3.11999 10.0537C3.03548 9.85648 2.89516 9.68831 2.7163 9.56986C2.53744 9.45141 2.32785 9.38785 2.11332 9.38699H1.99999C1.64637 9.38699 1.30723 9.24652 1.05718 8.99647C0.807132 8.74642 0.666656 8.40728 0.666656 8.05366C0.666656 7.70004 0.807132 7.3609 1.05718 7.11085C1.30723 6.8608 1.64637 6.72033 1.99999 6.72033H2.05999C2.28065 6.71516 2.49466 6.64374 2.67419 6.51533C2.85372 6.38693 2.99047 6.20748 3.06666 6.00033C3.1554 5.79925 3.18187 5.5762 3.14266 5.35993C3.10345 5.14367 3.00035 4.94411 2.84666 4.78699L2.80666 4.74699C2.68269 4.62316 2.58434 4.47611 2.51724 4.31425C2.45014 4.15238 2.41561 3.97888 2.41561 3.80366C2.41561 3.62844 2.45014 3.45494 2.51724 3.29307C2.58434 3.13121 2.68269 2.98416 2.80666 2.86033C2.93049 2.73636 3.07754 2.63801 3.2394 2.57091C3.40127 2.50381 3.57477 2.46928 3.74999 2.46928C3.92521 2.46928 4.09871 2.50381 4.26058 2.57091C4.42244 2.63801 4.56949 2.73636 4.69332 2.86033L4.73332 2.90033C4.89044 3.05402 5.09 3.15712 5.30626 3.19633C5.52253 3.23554 5.74558 3.20907 5.94666 3.12033H5.99999C6.19717 3.03582 6.36533 2.8955 6.48378 2.71664C6.60224 2.53778 6.6658 2.32818 6.66666 2.11366V2.00033C6.66666 1.6467 6.80713 1.30756 7.05718 1.05752C7.30723 0.807468 7.64637 0.666992 7.99999 0.666992C8.35361 0.666992 8.69275 0.807468 8.9428 1.05752C9.19285 1.30756 9.33332 1.6467 9.33332 2.00033V2.06033C9.33418 2.27485 9.39774 2.48444 9.51619 2.6633C9.63464 2.84216 9.80281 2.98248 9.99999 3.06699C10.2011 3.15574 10.4241 3.18221 10.6404 3.143C10.8566 3.10378 11.0562 3.00068 11.2133 2.84699L11.2533 2.80699C11.3772 2.68302 11.5242 2.58468 11.6861 2.51758C11.8479 2.45048 12.0214 2.41594 12.1967 2.41594C12.3719 2.41594 12.5454 2.45048 12.7072 2.51758C12.8691 2.58468 13.0162 2.68302 13.14 2.80699C13.264 2.93082 13.3623 3.07787 13.4294 3.23974C13.4965 3.4016 13.531 3.5751 13.531 3.75033C13.531 3.92555 13.4965 4.09905 13.4294 4.26091C13.3623 4.42278 13.264 4.56983 13.14 4.69366L13.1 4.73366C12.9463 4.89078 12.8432 5.09034 12.804 5.3066C12.7648 5.52286 12.7912 5.74591 12.88 5.94699V6.00033C12.9645 6.1975 13.1048 6.36567 13.2837 6.48412C13.4625 6.60257 13.6721 6.66614 13.8867 6.66699H14C14.3536 6.66699 14.6927 6.80747 14.9428 7.05752C15.1928 7.30756 15.3333 7.6467 15.3333 8.00033C15.3333 8.35395 15.1928 8.69309 14.9428 8.94313C14.6927 9.19318 14.3536 9.33366 14 9.33366H13.94C13.7255 9.33451 13.5159 9.39808 13.337 9.51653C13.1582 9.63498 13.0178 9.80315 12.9333 10.0003Z" stroke="#344054" stroke-width="1.5" stroke-linecap="round" stroke-linejoin="round"/>
</g>
</g>
<defs>
<clipPath id="clip0_1547_15284">
<rect width="16" height="16" fill="white"/>
</clipPath>
</defs>
</svg>
