<svg width="20" height="20" viewBox="0 0 20 20" fill="none" xmlns="http://www.w3.org/2000/svg">
<g id="Group 294">
<path id="Vector" opacity="0.4" d="M0 10.9323V9.06769C0 7.96586 0.849575 7.05474 1.89905 7.05474C3.70815 7.05474 4.44778 5.69865 3.53823 4.03532C3.01849 3.08182 3.32834 1.84227 4.23788 1.29136L5.96702 0.242508C6.75662 -0.255431 7.77611 0.0412139 8.24588 0.878176L8.35582 1.07947C9.25537 2.7428 10.7346 2.7428 11.6442 1.07947L11.7541 0.878176C12.2239 0.0412139 13.2434 -0.255431 14.033 0.242508L15.7621 1.29136C16.6717 1.84227 16.9815 3.08182 16.4618 4.03532C15.5522 5.69865 16.2919 7.05474 18.1009 7.05474C19.1404 7.05474 20 7.95527 20 9.06769V10.9323C20 12.0341 19.1504 12.9453 18.1009 12.9453C16.2919 12.9453 15.5522 14.3013 16.4618 15.9647C16.9815 16.9288 16.6717 18.1577 15.7621 18.7086L14.033 19.7575C13.2434 20.2554 12.2239 19.9588 11.7541 19.1218L11.6442 18.9205C10.7446 17.2572 9.26537 17.2572 8.35582 18.9205L8.24588 19.1218C7.77611 19.9588 6.75662 20.2554 5.96702 19.7575L4.23788 18.7086C3.8022 18.4427 3.48384 18.0045 3.35267 17.49C3.2215 16.9756 3.28823 16.427 3.53823 15.9647C4.44778 14.3013 3.70815 12.9453 1.89905 12.9453C0.849575 12.9453 0 12.0341 0 10.9323Z" fill="black"/>
<path id="Vector_2" d="M9.99447 13.4421C10.856 13.4421 11.6822 13.0793 12.2914 12.4336C12.9006 11.7878 13.2428 10.9121 13.2428 9.99886C13.2428 9.08567 12.9006 8.20988 12.2914 7.56415C11.6822 6.91843 10.856 6.55566 9.99447 6.55566C9.13295 6.55566 8.30671 6.91843 7.69752 7.56415C7.08833 8.20988 6.74609 9.08567 6.74609 9.99886C6.74609 10.9121 7.08833 11.7878 7.69752 12.4336C8.30671 13.0793 9.13295 13.4421 9.99447 13.4421Z" fill="black"/>
</g>
</svg>
