<svg width="24" height="24" viewBox="0 0 24 24" fill="none" xmlns="http://www.w3.org/2000/svg">
<g id="Iconsax/Bulk/timer">
<path id="Vector" opacity="0.4" d="M18.3495 19.68C18.0843 20.3654 17.6172 20.9542 17.0101 21.3685C16.403 21.7827 15.6845 22.003 14.9495 22H9.04949C8.31421 22.0044 7.59503 21.7847 6.98767 21.3703C6.3803 20.9558 5.91353 20.3663 5.64949 19.68C5.09949 18.26 5.47949 16.69 6.59949 15.67L10.6495 12H13.3595L17.3995 15.67C17.9451 16.1637 18.328 16.8114 18.4977 17.5274C18.6673 18.2434 18.6156 18.994 18.3495 19.68Z" fill="#7F56D9"/>
<path id="Vector_2" d="M13.82 18.141H10.18C9.99964 18.141 9.82668 18.0694 9.69915 17.9419C9.57163 17.8143 9.49999 17.6414 9.49999 17.461C9.49999 17.2807 9.57163 17.1077 9.69915 16.9802C9.82668 16.8527 9.99964 16.781 10.18 16.781H13.82C14.2 16.781 14.5 17.091 14.5 17.461C14.5 17.831 14.19 18.141 13.82 18.141ZM18.35 4.32003C18.0848 3.63459 17.6177 3.0458 17.0106 2.63154C16.4035 2.21728 15.685 1.99707 14.95 2.00003H9.04999C8.31437 1.99725 7.59527 2.21802 6.98795 2.63311C6.38063 3.0482 5.91375 3.63801 5.64917 4.3244C5.38459 5.01079 5.33479 5.76137 5.50638 6.4767C5.67796 7.19203 6.06283 7.83835 6.60999 8.33003L10.65 12H13.36L17.4 8.33003C17.9456 7.83633 18.3285 7.18866 18.4981 6.47266C18.6678 5.75666 18.6161 5.00604 18.35 4.32003ZM13.82 7.23003H10.18C9.99964 7.23003 9.82668 7.15839 9.69915 7.03086C9.57163 6.90334 9.49999 6.73038 9.49999 6.55003C9.49999 6.18003 9.80999 5.87003 10.18 5.87003H13.82C14.2 5.87003 14.5 6.18003 14.5 6.55003C14.5 6.92003 14.19 7.23003 13.82 7.23003Z" fill="#7F56D9"/>
</g>
</svg>
